# xmcd
#
# Track frame offsets: 
#        150
#        1945
#        16539
#        28946
#        39775
#        58895
#        78333
#        80439
#        101428
#        107937
#        117163
#        128860
#        136920
#        149445
#        158914
#        175983
#        187228
#        201856
#        213790
#        223375
#        237704
#        253384
#        260362
#        277431
#        289533
#        303898
#        314967
#        329045
#        337534
#
# Disc length: 4603 seconds
#
# Revision: 0
# Processed by: cddbd v1.5.2PL0 Copyright (c) Steve Scherf et al.
# Submitted via: ExactAudioCopy v0.95b3
#
DISCID=bb11f91d
DTITLE=Flo and Eddie And The Turtles  - The History of - Disc 2  FLAC
DYEAR=1900
DGENRE=
TTITLE0=Intro in German
TTITLE1=Illegal, Immoral and Fattening
TTITLE2=Rebecca
TTITLE3=Let Me Make Love To You
TTITLE4=Mama, Open Up
TTITLE5=Keep It Warm
TTITLE6=Intro to Moving Targets in German
TTITLE7=Moving Targets
TTITLE8=Flo and Eddie by the Fireside Radio Theme
TTITLE9=Guest Albert Brooks
TTITLE10=The Big Showdown (Springsteen Parody)
TTITLE11=Guest Alice Cooper
TTITLE12=This Could Be The Day
TTITLE13=Guest Keith Moon
TTITLE14=(You're Nothing But A) Good Duck
TTITLE15=Guest David Bowie
TTITLE16=Rhythm Butchers Medley
TTITLE17=Guest Marc Bolan and Mickey Finn and Marilyn Chambers fake prom
TTITLE17=o
TTITLE18=The Flo and Eddie Boogie (vocals and guitar Marc Bolan)
TTITLE19=Guest Ringo Starr
TTITLE20=Getaway (Back To LA)
TTITLE21=Guest Iggy Pop
TTITLE22=Living In The Jungle
TTITLE23=Guest Harry Nilsson
TTITLE24=Youth In Asia
TTITLE25=Guests Rick Price, Bev Bevan, Roy Wood, Jeff Lynne
TTITLE26=Louie Louie Medley
TTITLE27=Guest Lou Reed
TTITLE28=Flo and Eddie Show outro with America
EXTD=
EXTT0=
EXTT1=
EXTT2=
EXTT3=
EXTT4=
EXTT5=
EXTT6=
EXTT7=
EXTT8=
EXTT9=
EXTT10=
EXTT11=
EXTT12=
EXTT13=
EXTT14=
EXTT15=
EXTT16=
EXTT17=
EXTT18=
EXTT19=
EXTT20=
EXTT21=
EXTT22=
EXTT23=
EXTT24=
EXTT25=
EXTT26=
EXTT27=
EXTT28=
PLAYORDER=
